<svg width="32" height="32" viewBox="0 0 32 32" fill="none" xmlns="http://www.w3.org/2000/svg">
<path d="M16 0C7.16429 0 0 7.16429 0 16C0 24.8357 7.16429 32 16 32C24.8357 32 32 24.8357 32 16C32 7.16429 24.8357 0 16 0ZM16 29.2857C8.66429 29.2857 2.71429 23.3357 2.71429 16C2.71429 8.66429 8.66429 2.71429 16 2.71429C23.3357 2.71429 29.2857 8.66429 29.2857 16C29.2857 23.3357 23.3357 29.2857 16 29.2857Z" fill="#484848"/>
<path d="M22.2393 20.522L17.1465 16.8398V8.00056C17.1465 7.84342 17.0179 7.71484 16.8607 7.71484H15.1429C14.9857 7.71484 14.8572 7.84342 14.8572 8.00056V17.8363C14.8572 17.9291 14.9 18.0148 14.975 18.0684L20.8822 22.3756C21.0108 22.4684 21.1893 22.4398 21.2822 22.3148L22.3036 20.922C22.3965 20.7898 22.3679 20.6113 22.2393 20.522Z" fill="#484848"/>
</svg>
