<svg xmlns="http://www.w3.org/2000/svg" width="41" height="40" fill="none" viewBox="0 0 41 40"><path fill="#fff" d="M39.168 0H1.632C0.7293 0 0 0.715 0 1.6V38.4C0 39.285 0.7293 40 1.632 40H39.168C40.0707 40 40.8 39.285 40.8 38.4V1.6C40.8 0.715 40.0707 0 39.168 0ZM37.536 36.8H28.1469V24.51H33.4509L34.2465 18.475H28.1469V14.62C28.1469 12.87 28.6416 11.68 31.1967 11.68H34.4556V6.28C33.8895 6.205 31.9566 6.04 29.7024 6.04C25.0002 6.04 21.7821 8.855 21.7821 14.02V18.47H16.4679V24.505H21.7872V36.8H3.264V3.2H37.536V36.8Z" opacity=".8"/></svg>