<svg width="38" height="49" viewBox="0 0 38 49" fill="none" xmlns="http://www.w3.org/2000/svg">
<path d="M34.5853 1.93658H13.7606V1.88474C13.7606 0.998661 13.0384 0.277832 12.1507 0.277832H7.16519C6.27746 0.277832 5.5553 0.998661 5.5553 1.88474V1.93658H3.01063C1.66476 1.93658 0.569824 3.02949 0.569824 4.37286V45.8415C0.569824 47.1849 1.66476 48.2778 3.01063 48.2778H34.5853C35.9312 48.2778 37.0261 47.1849 37.0261 45.8415V4.37286C37.0261 3.02949 35.9312 1.93658 34.5853 1.93658ZM7.11326 1.88474C7.11326 1.85613 7.13663 1.83291 7.16519 1.83291H12.1507C12.1792 1.83291 12.2026 1.85613 12.2026 1.88474V11.4085L10.0063 10.3124C9.89671 10.2577 9.77727 10.2303 9.65793 10.2303C9.53859 10.2303 9.41914 10.2577 9.30957 10.3124L7.11326 11.4085V1.88474ZM35.4681 45.8415C35.4681 46.3275 35.0721 46.7228 34.5853 46.7228H3.01063C2.52382 46.7228 2.12778 46.3275 2.12778 45.8415V4.37286C2.12778 3.88696 2.52382 3.49165 3.01063 3.49165H5.5553V12.6666C5.5553 12.936 5.6951 13.1863 5.92474 13.328C6.15459 13.4698 6.44136 13.4826 6.68274 13.362L9.65803 11.8771L12.6333 13.362C12.7433 13.4169 12.8627 13.4441 12.9817 13.4441C13.1241 13.4441 13.2661 13.4052 13.3912 13.328C13.6209 13.1863 13.7607 12.936 13.7607 12.6666V3.49165H34.5854C35.0722 3.49165 35.4682 3.88696 35.4682 4.37286V45.8415H35.4681Z" fill="#484848"/>
<path d="M25.8497 17.7228C25.4095 17.6515 24.966 17.6995 24.5626 17.8552V17.7269C24.5626 16.4946 23.687 15.4232 22.526 15.2346C22.0539 15.1581 21.5781 15.2189 21.152 15.4025C20.9036 14.4681 20.1476 13.7294 19.2023 13.5758C18.4871 13.4597 17.7637 13.6592 17.2175 14.1229C16.6709 14.587 16.3573 15.2637 16.3573 15.9795V16.1966C15.954 16.0407 15.5105 15.9927 15.0702 16.0642C13.9092 16.2526 13.0336 17.3241 13.0336 18.5564V22.8316C12.6303 22.6758 12.1869 22.6278 11.7465 22.6992C10.5855 22.8877 9.70996 23.9591 9.70996 25.1914V30.9083C9.70996 35.4529 13.4141 39.1503 17.9672 39.1503H23.7836C26.0458 39.1503 27.8863 37.3132 27.8863 35.0552V20.2151C27.8863 18.9829 27.0107 17.9114 25.8497 17.7228ZM26.3283 35.0552C26.3283 36.4557 25.1868 37.5952 23.7836 37.5952H17.9672C14.2732 37.5952 11.2679 34.5954 11.2679 30.9083V25.1914C11.2679 24.7209 11.588 24.3004 11.9967 24.2341C12.0486 24.2257 12.0999 24.2215 12.1506 24.2215C12.3615 24.2215 12.5604 24.2936 12.7221 24.4308C12.9201 24.5989 13.0336 24.8437 13.0336 25.1026V29.2495C13.0336 29.6789 13.3823 30.0271 13.8126 30.0271C14.2429 30.0271 14.5916 29.6789 14.5916 29.2495V25.1026V18.5564C14.5916 18.0859 14.9117 17.6654 15.3204 17.599C15.5878 17.5556 15.8453 17.6255 16.0458 17.7958C16.2438 17.9639 16.3573 18.2086 16.3573 18.4676V25.1026C16.3573 25.5321 16.706 25.8802 17.1363 25.8802C17.5666 25.8802 17.9153 25.5321 17.9153 25.1026V18.4676V15.9795C17.9153 15.7205 18.0288 15.4757 18.2267 15.3077C18.4274 15.1373 18.6854 15.0676 18.9521 15.1109C19.3608 15.1773 19.681 15.5977 19.681 16.0682V17.6382V25.1026C19.681 25.5321 20.0296 25.8802 20.4599 25.8802C20.8903 25.8802 21.2389 25.5321 21.2389 25.1026V17.6382C21.2389 17.3793 21.3524 17.1345 21.5504 16.9664C21.7511 16.7961 22.0091 16.7265 22.2758 16.7697C22.6845 16.836 23.0046 17.2565 23.0046 17.727V20.1264V25.932C23.0046 26.3614 23.3533 26.7096 23.7836 26.7096C24.2139 26.7096 24.5626 26.3614 24.5626 25.932V20.1264C24.5626 19.8674 24.6761 19.6226 24.8741 19.4546C25.0746 19.2842 25.3328 19.2145 25.5995 19.2578C26.0082 19.3241 26.3283 19.7446 26.3283 20.2151V35.0552Z" fill="#484848"/>
</svg>
