<svg width="30" height="48" viewBox="0 0 30 48" fill="none" xmlns="http://www.w3.org/2000/svg">
<path d="M27.3175 43.1274H27.2657V26.3084C28.2288 25.983 28.9244 25.0716 28.9244 24C28.9244 22.9284 28.2288 22.017 27.2657 21.6916V4.87257H27.3175C28.6609 4.87257 29.7538 3.77966 29.7538 2.43629C29.7538 1.09291 28.6609 0 27.3175 0H2.43629C1.09291 0 0 1.09291 0 2.43629C0 3.77966 1.09291 4.87257 2.43629 4.87257H2.48812V21.6916C1.52501 22.017 0.829374 22.9284 0.829374 24C0.829374 25.0716 1.52501 25.983 2.48812 26.3084V43.1274H2.43629C1.09291 43.1274 0 44.2203 0 45.5637C0 46.9071 1.09291 48 2.43629 48H27.3175C28.6609 48 29.7538 46.9071 29.7538 45.5637C29.7538 44.2203 28.6609 43.1274 27.3175 43.1274ZM26.4881 24.8812C26.0022 24.8812 25.6069 24.4859 25.6069 24C25.6069 23.5141 26.0022 23.1188 26.4881 23.1188C26.974 23.1188 27.3693 23.5141 27.3693 24C27.3693 24.4859 26.974 24.8812 26.4881 24.8812ZM25.7106 21.6916C24.7475 22.017 24.0518 22.9284 24.0518 24C24.0518 25.0716 24.7475 25.983 25.7106 26.3084V43.1274H23.2887C24.2675 41.6967 24.7775 39.9872 24.7775 38.0994C24.7775 34.7583 23.1322 31.1437 20.0193 27.6461C18.5292 25.9719 17.0522 24.7071 16.1627 24C17.0522 23.2929 18.5292 22.0281 20.0193 20.3539C23.1322 16.8563 24.7775 13.2417 24.7775 9.90065C24.7775 8.01279 24.2675 6.30334 23.2887 4.87257H25.7106V21.6916ZM8.46469 43.1274C7.19927 41.8067 6.53132 40.0754 6.53132 38.0994C6.53132 36.0228 7.25619 34.0293 8.28928 32.2419H12.3888C13.3847 32.2419 14.2775 31.7932 14.8769 31.0879C15.4763 31.7932 16.369 32.2419 17.365 32.2419H21.4677C22.499 34.0283 23.2225 36.0214 23.2225 38.0994C23.2225 40.0754 22.5545 41.8067 21.2891 43.1274H8.46469ZM8.46469 4.87257H21.2891C22.5545 6.19335 23.2225 7.92456 23.2225 9.90065C23.2225 11.9772 22.4976 13.9707 21.4645 15.7581H8.28606C7.25474 13.9717 6.53132 11.9786 6.53132 9.90065C6.53132 7.92456 7.19927 6.19335 8.46469 4.87257ZM20.4589 17.3132C18.4426 20.1331 15.8923 22.2437 14.8765 23.0292C13.8595 22.244 11.3074 20.1347 9.29095 17.3132H20.4589ZM17.365 30.6868C16.4218 30.6868 15.6544 29.9194 15.6544 28.9762V25.5954C16.893 26.6275 18.8492 28.4289 20.4628 30.6868H17.365ZM14.0994 28.9762C14.0994 29.9194 13.332 30.6868 12.3888 30.6868H9.29489C10.9078 28.431 12.8618 26.6296 14.0994 25.597V28.9762ZM1.55508 2.43629C1.55508 1.95038 1.95038 1.55508 2.43629 1.55508H27.3175C27.8034 1.55508 28.1987 1.95038 28.1987 2.43629C28.1987 2.92219 27.8034 3.31749 27.3175 3.31749H2.43629C1.95038 3.31749 1.55508 2.92219 1.55508 2.43629ZM3.26566 23.1188C3.75157 23.1188 4.14687 23.5141 4.14687 24C4.14687 24.4859 3.75157 24.8812 3.26566 24.8812C2.77975 24.8812 2.38445 24.4859 2.38445 24C2.38445 23.5141 2.77975 23.1188 3.26566 23.1188ZM4.0432 26.3084C5.00631 25.983 5.70194 25.0716 5.70194 24C5.70194 22.9284 5.00631 22.017 4.0432 21.6916V4.87257H6.46507C5.48631 6.30334 4.97624 8.01279 4.97624 9.90065C4.97624 13.2417 6.62162 16.8563 9.73446 20.3539C11.2245 22.0281 12.7015 23.2929 13.591 24C12.7015 24.7071 11.2245 25.9719 9.73446 27.6461C6.62162 31.1437 4.97624 34.7583 4.97624 38.0994C4.97624 39.9872 5.48631 41.6967 6.46507 43.1274H4.0432V26.3084ZM27.3175 46.4449H2.43629C1.95038 46.4449 1.55508 46.0496 1.55508 45.5637C1.55508 45.0778 1.95038 44.6825 2.43629 44.6825H27.3175C27.8034 44.6825 28.1987 45.0778 28.1987 45.5637C28.1987 46.0496 27.8034 46.4449 27.3175 46.4449Z" fill="#484848"/>
</svg>
