<svg id="Capa_1" enable-background="new 0 0 512 512" height="512" viewBox="0 0 512 512" width="512" xmlns="http://www.w3.org/2000/svg"><g><path d="m120 347c0-24.813-20.187-45-45-45s-45 20.187-45 45 20.187 45 45 45 45-20.187 45-45zm-45 15c-8.271 0-15-6.729-15-15s6.729-15 15-15 15 6.729 15 15-6.729 15-15 15z"/><path d="m75 392c-41.355 0-75 33.645-75 75v45h150v-45c0-41.355-33.645-75-75-75zm45 90h-90v-15c0-24.813 20.187-45 45-45s45 20.187 45 45z"/><path d="m256 392c-41.355 0-75 33.645-75 75v45h150v-45c0-41.355-33.645-75-75-75zm45 90h-90v-15c0-24.813 20.187-45 45-45s45 20.187 45 45z"/><path d="m301 347c0-24.813-20.187-45-45-45s-45 20.187-45 45v45h90zm-30 15h-30v-15c0-8.271 6.729-15 15-15s15 6.729 15 15z"/><path d="m482 347c0-24.813-20.187-45-45-45s-45 20.187-45 45 20.187 45 45 45 45-20.187 45-45zm-45 15c-8.271 0-15-6.729-15-15s6.729-15 15-15 15 6.729 15 15-6.729 15-15 15z"/><path d="m437 392c-41.355 0-75 33.645-75 75v45h150v-45c0-41.355-33.645-75-75-75zm45 90h-90v-15c0-24.813 20.187-45 45-45s45 20.187 45 45z"/><path d="m0 0v30h30v241h452v-241h30v-30c-36.025 0-490.591 0-512 0zm452 241h-392v-211h392z"/><path d="m91 91h30v120h-30z"/><path d="m151 61h30v150h-30z"/><path d="m211 121h30v90h-30z"/><path d="m301 61h120v30h-120z"/><path d="m301 121h120v30h-120z"/><path d="m301 181h120v30h-120z"/></g></svg>