<svg id="Capa_1" enable-background="new 0 0 512 512" height="512" viewBox="0 0 512 512" width="512" xmlns="http://www.w3.org/2000/svg"><g><path d="m497 120.5h-94.039l-55.853-55.856c-2.813-2.813-6.628-4.394-10.607-4.394h-100.499-221.002c-8.284 0-15 6.716-15 15v361.5c0 8.284 6.716 15 15 15h482c8.284 0 15-6.716 15-15v-301.25c0-8.284-6.716-15-15-15zm-136.465 0h-58.074l-30.248-30.25h58.074zm-130.746-30.25 30.248 30.25h-58.073l-30.248-30.25zm252.211 331.5h-452v-331.5h99.291l55.853 55.856c2.813 2.813 6.628 4.394 10.607 4.394h286.249z"/><path d="m301.25 316.25v60.25c0 8.284 6.716 15 15 15h120.5c8.284 0 15-6.716 15-15v-60.25c0-8.284-6.716-15-15-15h-120.5c-8.284 0-15 6.716-15 15zm30 15h90.5v30.25h-90.5z"/></g></svg>