<svg xmlns="http://www.w3.org/2000/svg" width="20" height="16" fill="none" viewBox="0 0 20 16"><path fill="#484848" d="M2.88889 6.20017e-09H16.6667C17.4046 -4.83082e-05 18.1145 0.28227 18.6509 0.789041C19.1872 1.29581 19.5093 1.98862 19.5511 2.72533L19.5556 2.88889V13.1111C19.5556 13.849 19.2733 14.559 18.7665 15.0953C18.2597 15.6317 17.5669 15.9538 16.8302 15.9956L16.6667 16H2.88889C2.15099 16 1.44104 15.7177 0.904684 15.211C0.368326 14.7042 0.046221 14.0114 0.00444455 13.2747L6.20016e-09 13.1111V2.88889C-4.83082e-05 2.15099 0.28227 1.44104 0.789041 0.904684C1.29581 0.368326 1.98862 0.046221 2.72533 0.00444455L2.88889 6.20017e-09H16.6667H2.88889ZM18.2222 5.24889L10.0853 9.48C10.0065 9.52096 9.92031 9.54575 9.83177 9.55293C9.74324 9.5601 9.65416 9.54951 9.56978 9.52178L9.47022 9.48L1.33333 5.24889V13.1111C1.33335 13.5015 1.48015 13.8776 1.7446 14.1648C2.00906 14.452 2.37182 14.6292 2.76089 14.6613L2.88889 14.6667H16.6667C17.0572 14.6666 17.4334 14.5197 17.7206 14.2551C18.0078 13.9904 18.185 13.6274 18.2169 13.2382L18.2222 13.1111V5.24889ZM16.6667 1.33333H2.88889C2.4985 1.33335 2.12238 1.48015 1.83521 1.7446C1.54803 2.00906 1.37079 2.37182 1.33867 2.76089L1.33333 2.88889V3.74578L9.77778 8.13689L18.2222 3.74578V2.88889C18.2222 2.49836 18.0753 2.12212 17.8106 1.83493C17.546 1.54773 17.183 1.37058 16.7938 1.33867L16.6667 1.33333Z"/></svg>