<svg id="Capa_1" enable-background="new 0 0 512 512" height="512" viewBox="0 0 512 512" width="512" xmlns="http://www.w3.org/2000/svg"><g><path d="m497 254.24c8.284 0 15-6.716 15-15v-60.25c0-8.284-6.716-15-15-15h-45.25v-18.521c0-23.448-13.519-43.786-33.164-53.665 4.594-7.492 7.247-16.296 7.247-25.71 0-27.203-22.131-49.333-49.333-49.333s-49.333 22.131-49.333 49.333c0 9.414 2.654 18.218 7.247 25.71-6.926 3.483-13.086 8.264-18.164 14.027-5.078-5.763-11.238-10.544-18.164-14.027 4.594-7.492 7.247-16.296 7.247-25.71 0-27.203-22.131-49.333-49.333-49.333s-49.333 22.131-49.333 49.333c0 9.414 2.654 18.218 7.247 25.71-6.926 3.483-13.086 8.264-18.164 14.027-5.078-5.763-11.238-10.544-18.164-14.027 4.594-7.492 7.247-16.296 7.247-25.71 0-27.203-22.131-49.333-49.333-49.333s-49.333 22.13-49.333 49.333c0 9.414 2.654 18.218 7.247 25.71-19.645 9.88-33.164 30.218-33.164 53.665v18.521h-45.25c-8.284 0-15 6.716-15 15v60.25c0 8.284 6.716 15 15 15h15.125v150.75h-15.125c-8.284 0-15 6.716-15 15v60.25c0 8.284 6.716 15 15 15h482c8.284 0 15-6.716 15-15v-60.25c0-8.284-6.716-15-15-15h-15.125v-150.75zm-120.5-207.48c10.661 0 19.333 8.673 19.333 19.333s-8.673 19.333-19.333 19.333-19.333-8.673-19.333-19.333 8.672-19.333 19.333-19.333zm-15.208 68.667h30.417c16.565 0 30.042 13.477 30.042 30.042v18.521h-90.5v-18.521c-.001-16.565 13.476-30.042 30.041-30.042zm-105.292-68.667c10.661 0 19.333 8.673 19.333 19.333s-8.672 19.334-19.333 19.334-19.333-8.673-19.333-19.333 8.672-19.334 19.333-19.334zm-15.208 68.667h30.417c16.565 0 30.042 13.477 30.042 30.042v18.521h-90.5v-18.521c-.001-16.565 13.476-30.042 30.041-30.042zm-105.292-68.667c10.661 0 19.333 8.673 19.333 19.333s-8.673 19.333-19.333 19.333-19.333-8.673-19.333-19.333 8.672-19.333 19.333-19.333zm-45.25 98.709c0-16.565 13.477-30.042 30.042-30.042h30.417c16.565 0 30.042 13.477 30.042 30.042v18.521h-90.5v-18.521zm-60.25 48.521h452v30.25h-452zm452 271.25h-452v-30.25h452zm-30.125-60.25h-391.75v-150.75h391.75z"/><path d="m108.286 374.576h295.428c8.284 0 15-6.716 15-15v-60.112c0-8.284-6.716-15-15-15h-295.428c-8.284 0-15 6.716-15 15v60.112c0 8.284 6.716 15 15 15zm15-60.112h265.428v30.112h-265.428z"/></g></svg>