<svg id="Capa_1" enable-background="new 0 0 512 512" height="512" viewBox="0 0 512 512" width="512" xmlns="http://www.w3.org/2000/svg"><g><path d="m384.718 112.027v-48.417c0-35.075-28.535-63.61-63.609-63.61h-130.22c-35.075 0-63.61 28.535-63.61 63.61v48.417c-58.389 41.935-92.618 109.102-91.969 181.287.523 58.728 23.684 113.732 65.215 154.881 41.526 41.145 96.741 63.805 155.474 63.805 58.949 0 114.371-22.958 156.057-64.644 41.687-41.686 64.644-97.108 64.644-156.057-.001-71.359-34.235-137.775-91.982-179.272zm-128.719 369.973c-104.218 0-189.761-84.764-190.69-188.955-.582-64.723 31.297-124.784 85.274-160.663 4.183-2.78 6.696-7.47 6.696-12.492v-56.28c0-18.533 15.077-33.61 33.61-33.61h130.22c18.532 0 33.609 15.077 33.609 33.61v56.28c0 6.043-4.917 10.96-10.96 10.96h-87.761c-88.472.001-160.449 71.978-160.449 160.45 0 88.473 71.978 160.45 160.45 160.45s160.45-71.978 160.45-160.45c0-53.895-26.711-101.668-67.589-130.779 11.52-1.439 21.566-7.674 28.071-16.645 43.996 36.08 69.769 89.888 69.769 147.424 0 105.152-85.548 190.7-190.7 190.7zm0-321.15c71.931 0 130.45 58.52 130.45 130.45 0 71.931-58.52 130.45-130.45 130.45s-130.45-58.52-130.45-130.45c-.001-71.93 58.519-130.45 130.45-130.45z"/><path d="m255.998 111.129c8.284 0 15-6.716 15-15v-30.816c0-8.284-6.716-15-15-15s-15 6.716-15 15v30.815c0 8.285 6.716 15.001 15 15.001z"/></g></svg>