<svg width="41" height="40" viewBox="0 0 41 40" fill="none" xmlns="http://www.w3.org/2000/svg">
<g opacity="0.8">
<path fill-rule="evenodd" clip-rule="evenodd" d="M20.8 10.9093C18.389 10.9093 16.0767 11.8671 14.3718 13.5719C12.6669 15.2768 11.7091 17.5891 11.7091 20.0002C11.7091 22.4112 12.6669 24.7235 14.3718 26.4284C16.0767 28.1333 18.389 29.0911 20.8 29.0911C23.2111 29.0911 25.5234 28.1333 27.2283 26.4284C28.9332 24.7235 29.891 22.4112 29.891 20.0002C29.891 17.5891 28.9332 15.2768 27.2283 13.5719C25.5234 11.8671 23.2111 10.9093 20.8 10.9093ZM15.3455 20.0002C15.3455 21.4468 15.9202 22.8342 16.9431 23.8571C17.966 24.8801 19.3534 25.4547 20.8 25.4547C22.2467 25.4547 23.6341 24.8801 24.657 23.8571C25.6799 22.8342 26.2546 21.4468 26.2546 20.0002C26.2546 18.5535 25.6799 17.1662 24.657 16.1432C23.6341 15.1203 22.2467 14.5456 20.8 14.5456C19.3534 14.5456 17.966 15.1203 16.9431 16.1432C15.9202 17.1662 15.3455 18.5535 15.3455 20.0002Z" fill="white"/>
<path d="M31.709 7.27295C31.2268 7.27295 30.7643 7.46451 30.4234 7.80548C30.0824 8.14646 29.8908 8.60892 29.8908 9.09113C29.8908 9.57334 30.0824 10.0358 30.4234 10.3768C30.7643 10.7178 31.2268 10.9093 31.709 10.9093C32.1912 10.9093 32.6537 10.7178 32.9947 10.3768C33.3356 10.0358 33.5272 9.57334 33.5272 9.09113C33.5272 8.60892 33.3356 8.14646 32.9947 7.80548C32.6537 7.46451 32.1912 7.27295 31.709 7.27295Z" fill="white"/>
<path fill-rule="evenodd" clip-rule="evenodd" d="M8.07272 0C6.14387 0 4.29402 0.766232 2.93012 2.13013C1.56622 3.49403 0.799988 5.34388 0.799988 7.27273V32.7273C0.799988 34.6561 1.56622 36.506 2.93012 37.8699C4.29402 39.2338 6.14387 40 8.07272 40H33.5273C35.4561 40 37.306 39.2338 38.6699 37.8699C40.0338 36.506 40.8 34.6561 40.8 32.7273V7.27273C40.8 5.34388 40.0338 3.49403 38.6699 2.13013C37.306 0.766232 35.4561 0 33.5273 0H8.07272ZM33.5273 3.63636H8.07272C7.10829 3.63636 6.18337 4.01948 5.50142 4.70143C4.81947 5.38338 4.43635 6.3083 4.43635 7.27273V32.7273C4.43635 33.6917 4.81947 34.6166 5.50142 35.2986C6.18337 35.9805 7.10829 36.3636 8.07272 36.3636H33.5273C34.4917 36.3636 35.4166 35.9805 36.0986 35.2986C36.7805 34.6166 37.1636 33.6917 37.1636 32.7273V7.27273C37.1636 6.3083 36.7805 5.38338 36.0986 4.70143C35.4166 4.01948 34.4917 3.63636 33.5273 3.63636Z" fill="white"/>
</g>
</svg>
