<svg xmlns="http://www.w3.org/2000/svg" width="47" height="40" fill="none" viewBox="0 0 47 40"><g clip-path="url(#clip0)"><path fill="#fff" d="M45.5209 30.8592L36.2253 25.46C35.0457 24.7804 33.4644 25.004 32.5923 25.974L29.8846 29.0062C29.5367 29.4058 28.9041 29.5217 28.4007 29.2781L27.8856 29.0308C26.1782 28.2203 24.0537 27.2111 19.7733 23.4817C15.4929 19.7522 14.3319 17.9005 13.4012 16.4161L13.1188 15.9675C12.8353 15.5291 12.9659 14.9758 13.4249 14.6703L16.904 12.3127C18.0171 11.553 18.2743 10.1762 17.4948 9.14848L11.2957 1.05234C10.4969 0.00578055 8.89422 -0.308392 7.65754 0.33909L3.77047 2.37277C2.54913 2.99815 1.65308 4.01097 1.27021 5.19899C-0.129512 9.64099 0.923488 17.3072 13.8895 28.6015C24.2038 37.5842 31.8822 39.9998 37.1599 39.9998C38.3745 40.0044 39.5843 39.8667 40.7569 39.5906C42.1212 39.2575 43.2842 38.477 44.0018 37.413L46.3391 34.0295C47.0836 32.9521 46.7231 31.5554 45.5209 30.8592ZM45.0204 33.3455L42.6884 36.731C42.1732 37.499 41.3367 38.0637 40.3542 38.3068C35.646 39.4327 27.4203 38.5001 14.9724 27.6584C2.52447 16.8166 1.45389 9.65302 2.74653 5.55167C3.02599 4.69493 3.67514 3.96543 4.558 3.51596L8.44508 1.48494C8.98166 1.20373 9.67727 1.34004 10.0239 1.79419L13.3913 6.19752L16.2177 9.88962C16.5562 10.3354 16.445 10.9329 15.9621 11.2628L12.4822 13.6204C11.4232 14.3257 11.1208 15.6018 11.7728 16.6146L12.0491 17.0519C13.0272 18.6143 14.2433 20.558 18.6829 24.4242C23.1225 28.2902 25.3534 29.3495 27.1465 30.2013L27.6493 30.4426C28.8121 31.0104 30.2774 30.7471 31.0871 29.8247L33.794 26.7938C34.1729 26.3735 34.8586 26.2767 35.3706 26.5712L44.6654 31.9704C45.1872 32.2721 45.3437 32.8782 45.0204 33.3455Z"/><path fill="#fff" d="M26.8234 6.67009C34.0055 6.67704 39.8257 11.7464 39.8338 18.0018C39.8338 18.3699 40.1764 18.6683 40.5991 18.6683C41.0218 18.6683 41.3644 18.3699 41.3644 18.0018C41.3555 11.0104 34.8505 5.34466 26.8234 5.33701C26.4007 5.33701 26.0581 5.6354 26.0581 6.00355C26.0581 6.3717 26.4007 6.67009 26.8234 6.67009Z"/><path fill="#fff" d="M26.8234 10.6695C31.4705 10.6743 35.2364 13.9543 35.2419 18.0018C35.2419 18.3699 35.5846 18.6683 36.0072 18.6683C36.4299 18.6683 36.7725 18.3699 36.7725 18.0018C36.7661 13.2183 32.3154 9.34189 26.8234 9.33643C26.4007 9.33643 26.0581 9.63482 26.0581 10.003C26.0581 10.3711 26.4007 10.6695 26.8234 10.6695Z"/><path fill="#fff" d="M26.8234 14.6689C28.9356 14.6711 30.6474 16.162 30.65 18.0018C30.65 18.3699 30.9927 18.6683 31.4153 18.6683C31.8379 18.6683 32.1806 18.3699 32.1806 18.0018C32.1772 15.4261 29.7807 13.3387 26.8234 13.3358C26.4007 13.3358 26.0581 13.6342 26.0581 14.0024C26.0581 14.3705 26.4007 14.6689 26.8234 14.6689Z"/></g><defs><clipPath id="clip0"><rect width="45.926" height="40" fill="#fff" transform="translate(0.800049)"/></clipPath></defs></svg>