<svg width="26" height="24" viewBox="0 0 26 24" fill="none" xmlns="http://www.w3.org/2000/svg">
<path d="M3.75555 9.30025e-09H21.6667C22.6259 -7.24623e-05 23.5489 0.423405 24.2461 1.18356C24.9434 1.94372 25.3621 2.98293 25.4164 4.088L25.4222 4.33333V19.6667C25.4223 20.7735 25.0553 21.8384 24.3965 22.643C23.7377 23.4475 22.837 23.9307 21.8793 23.9933L21.6667 24H3.75555C2.79628 24.0001 1.87335 23.5766 1.17609 22.8164C0.478824 22.0563 0.0600874 21.0171 0.00577792 19.912L8.06021e-09 19.6667V4.33333C-6.28007e-05 3.22648 0.366951 2.16156 1.02575 1.35703C1.68456 0.552489 2.5852 0.0693316 3.54293 0.00666683L3.75555 9.30025e-09H21.6667H3.75555ZM23.6889 7.87333L13.1109 14.22C13.0085 14.2814 12.8964 14.3186 12.7813 14.3294C12.6662 14.3402 12.5504 14.3243 12.4407 14.2827L12.3113 14.22L1.73333 7.87333V19.6667C1.73335 20.2523 1.9242 20.8164 2.26799 21.2472C2.61177 21.678 3.08337 21.9438 3.58915 21.992L3.75555 22H21.6667C22.1744 22 22.6635 21.7796 23.0368 21.3826C23.4102 20.9856 23.6405 20.4412 23.682 19.8573L23.6889 19.6667V7.87333ZM21.6667 2H3.75555C3.24805 2.00002 2.7591 2.22023 2.38577 2.61691C2.01244 3.01359 1.78203 3.55773 1.74027 4.14133L1.73333 4.33333V5.61867L12.7111 12.2053L23.6889 5.61867V4.33333C23.6888 3.74753 23.4978 3.18319 23.1538 2.75239C22.8098 2.32159 22.3379 2.05587 21.8319 2.008L21.6667 2Z" fill="white"/>
</svg>
