<svg width="30" height="22" viewBox="0 0 30 22" fill="none" xmlns="http://www.w3.org/2000/svg">
<path d="M30 10.9052C30 10.8307 30 10.7461 29.9967 10.6479C29.9933 10.3737 29.9866 10.0656 29.9799 9.73715C29.9531 8.79255 29.9062 7.85134 29.8326 6.9643C29.7321 5.74207 29.5848 4.72299 29.3839 3.95783C29.1719 3.15932 28.7564 2.43107 28.1788 1.84585C27.6012 1.26063 26.8819 0.838952 26.0926 0.622961C25.1451 0.365651 23.2902 0.206525 20.6786 0.108341C19.4364 0.0609417 18.1071 0.0304707 16.7779 0.0135424C16.3125 0.00677111 15.8806 0.00338566 15.4922 0H14.5078C14.1194 0.00338566 13.6875 0.00677111 13.2221 0.0135424C11.8929 0.0304707 10.5636 0.0609417 9.32143 0.108341C6.70982 0.209911 4.85156 0.369036 3.90737 0.622961C3.11786 0.838422 2.39822 1.25992 1.82057 1.84522C1.24292 2.43052 0.827545 3.15906 0.616071 3.95783C0.41183 4.72299 0.267857 5.74207 0.167411 6.9643C0.09375 7.85134 0.0468749 8.79255 0.0200892 9.73715C0.0100446 10.0656 0.00669638 10.3737 0.00334816 10.6479C0.00334816 10.7461 0 10.8307 0 10.9052V11.0948C0 11.1693 -5.11396e-08 11.2539 0.00334816 11.3521C0.00669638 11.6263 0.0133928 11.9344 0.0200892 12.2628C0.0468749 13.2074 0.09375 14.1487 0.167411 15.0357C0.267857 16.2579 0.415179 17.277 0.616071 18.0422C1.04464 19.6639 2.30357 20.9437 3.90737 21.377C4.85156 21.6343 6.70982 21.7935 9.32143 21.8917C10.5636 21.9391 11.8929 21.9695 13.2221 21.9865C13.6875 21.9932 14.1194 21.9966 14.5078 22H15.4922C15.8806 21.9966 16.3125 21.9932 16.7779 21.9865C18.1071 21.9695 19.4364 21.9391 20.6786 21.8917C23.2902 21.7901 25.1484 21.631 26.0926 21.377C27.6964 20.9437 28.9554 19.6673 29.3839 18.0422C29.5882 17.277 29.7321 16.2579 29.8326 15.0357C29.9062 14.1487 29.9531 13.2074 29.9799 12.2628C29.99 11.9344 29.9933 11.6263 29.9967 11.3521C29.9967 11.2539 30 11.1693 30 11.0948V10.9052ZM27.5893 11.0813C27.5893 11.1524 27.5893 11.2302 27.5859 11.3216C27.5826 11.5857 27.5759 11.8769 27.5692 12.1917C27.5458 13.0923 27.4989 13.9929 27.4286 14.8292C27.3382 15.9194 27.2109 16.8132 27.0536 17.4124C26.846 18.1945 26.2366 18.8141 25.4665 19.0206C24.7634 19.2102 22.9922 19.3626 20.5848 19.454C19.3661 19.5014 18.0536 19.5319 16.7444 19.5488C16.2857 19.5556 15.8605 19.5589 15.4788 19.5589H14.5212L13.2556 19.5488C11.9464 19.5319 10.6373 19.5014 9.41518 19.454C7.00781 19.3592 5.23326 19.2102 4.53348 19.0206C3.76339 18.8107 3.15402 18.1945 2.94643 17.4124C2.78906 16.8132 2.66183 15.9194 2.57143 14.8292C2.50112 13.9929 2.45759 13.0923 2.4308 12.1917C2.42076 11.8769 2.41741 11.5823 2.41406 11.3216C2.41406 11.2302 2.41071 11.149 2.41071 11.0813V10.9187C2.41071 10.8476 2.41071 10.7698 2.41406 10.6784C2.41741 10.4143 2.42411 10.1231 2.4308 9.80825C2.45424 8.90766 2.50112 8.00708 2.57143 7.17082C2.66183 6.08064 2.78906 5.18683 2.94643 4.58756C3.15402 3.80548 3.76339 3.1859 4.53348 2.97938C5.23661 2.78978 7.00781 2.63743 9.41518 2.54601C10.6339 2.49861 11.9464 2.46814 13.2556 2.45122C13.7143 2.44444 14.1395 2.44106 14.5212 2.44106H15.4788L16.7444 2.45122C18.0536 2.46814 19.3627 2.49861 20.5848 2.54601C22.9922 2.64081 24.7667 2.78978 25.4665 2.97938C26.2366 3.18929 26.846 3.80548 27.0536 4.58756C27.2109 5.18683 27.3382 6.08064 27.4286 7.17082C27.4989 8.00708 27.5424 8.90766 27.5692 9.80825C27.5792 10.1231 27.5826 10.4177 27.5859 10.6784C27.5859 10.7698 27.5893 10.851 27.5893 10.9187V11.0813ZM12.0201 15.5368L19.7879 10.9661L12.0201 6.46322V15.5368Z" fill="white"/>
</svg>
